<svg width="147" height="96" viewBox="0 0 147 96" fill="none" xmlns="http://www.w3.org/2000/svg">
<path d="M2.048 23.216H12.928L22.976 52.784L21.504 52.144L30.272 30.32L34.56 43.056L20.992 72.176L2.048 23.216ZM25.664 23.216H34.88L46.464 51.824L44.8 51.568L53.44 23.216H63.424L45.248 72.048L25.664 23.216ZM78.118 70.768C74.7047 70.768 71.8033 70.128 69.414 68.848C67.0673 67.568 65.2753 65.7973 64.038 63.536C62.8007 61.2747 62.182 58.672 62.182 55.728C62.182 52.912 62.9073 50.3733 64.358 48.112C65.8087 45.8507 67.75 44.0587 70.182 42.736C72.614 41.3707 75.3233 40.688 78.31 40.688C82.3207 40.688 85.606 41.8613 88.166 44.208C90.7687 46.512 92.454 49.8613 93.222 54.256L71.462 61.168L69.478 56.304L85.222 50.992L83.366 51.824C83.0247 50.7147 82.406 49.7547 81.51 48.944C80.6567 48.0907 79.3553 47.664 77.606 47.664C75.6007 47.664 74.0007 48.3467 72.806 49.712C71.6113 51.0773 71.014 52.912 71.014 55.216C71.014 57.8187 71.718 59.8027 73.126 61.168C74.534 62.4907 76.262 63.152 78.31 63.152C79.2913 63.152 80.23 62.9813 81.126 62.64C82.0647 62.2987 82.982 61.8507 83.878 61.296L87.846 67.952C86.3527 68.8053 84.7313 69.488 82.982 70C81.2753 70.512 79.654 70.768 78.118 70.768Z" fill="#FAED26"/>
<path d="M140.821 22.896V70H131.541V50.864H110.485V70H101.205V22.896H110.485V41.904H131.541V22.896H140.821Z" fill="white"/>
<path d="M77.2572 35C77.2572 38.0376 74.7947 40.5 71.7572 40.5C68.7196 40.5 66.2572 38.0376 66.2572 35C66.2572 31.9624 68.7196 29.5 71.7572 29.5C74.7947 29.5 77.2572 31.9624 77.2572 35Z" fill="#FAED26"/>
<path d="M77 35C77 37.7614 74.9853 40 72.5 40C70.0147 40 68 37.7614 68 35C68 32.2386 70.0147 30 72.5 30C74.9853 30 77 32.2386 77 35Z" fill="white"/>
<path d="M86.9455 35.9727C86.9455 38.1668 85.1668 39.9455 82.9727 39.9455C80.7787 39.9455 79 38.1668 79 35.9727C79 33.7787 80.7787 32 82.9727 32C85.1668 32 86.9455 33.7787 86.9455 35.9727Z" fill="#FAED26"/>
<path d="M86.7597 35.9727C86.7597 37.9673 85.3045 39.5843 83.5093 39.5843C81.7142 39.5843 80.2589 37.9673 80.2589 35.9727C80.2589 33.9781 81.7142 32.3611 83.5093 32.3611C85.3045 32.3611 86.7597 33.9781 86.7597 35.9727Z" fill="white"/>
</svg>
